<svg width="32" height="32" viewBox="0 0 32 32" xmlns="http://www.w3.org/2000/svg">
  <defs>
    <!-- Main gradient -->
    <linearGradient id="mainGradient" x1="0%" y1="0%" x2="100%" y2="100%">
      <stop offset="0%" style="stop-color:#4F46E5;stop-opacity:1" />
      <stop offset="50%" style="stop-color:#7C3AED;stop-opacity:1" />
      <stop offset="100%" style="stop-color:#DB2777;stop-opacity:1" />
    </linearGradient>
    
    <!-- Shine gradient -->
    <linearGradient id="shineGradient" x1="0%" y1="0%" x2="100%" y2="100%">
      <stop offset="0%" style="stop-color:rgba(255,255,255,0.4);stop-opacity:1" />
      <stop offset="100%" style="stop-color:rgba(255,255,255,0);stop-opacity:1" />
    </linearGradient>
    
    <!-- Shadow filter -->
    <filter id="innerShadow" x="-50%" y="-50%" width="200%" height="200%">
      <feGaussianBlur in="SourceGraphic" stdDeviation="1"/>
      <feOffset dx="0" dy="1" result="offset"/>
    </filter>
  </defs>
  
  <!-- Main background with rounded corners -->
  <rect width="32" height="32" rx="7" ry="7" fill="url(#mainGradient)" />
  
  <!-- Subtle inner border -->
  <rect x="1" y="1" width="30" height="30" rx="6" ry="6" fill="none" stroke="rgba(255,255,255,0.2)" stroke-width="0.5"/>
  
  <!-- Main symbol - abstract geometric design -->
  <g transform="translate(16, 16)">
    <!-- Central diamond -->
    <path d="M0,-8 L6,0 L0,8 L-6,0 Z" fill="white" opacity="0.95"/>
    
    <!-- Side elements -->
    <circle cx="-10" cy="0" r="2.5" fill="white" opacity="0.8"/>
    <circle cx="10" cy="0" r="2.5" fill="white" opacity="0.8"/>
    
    <!-- Top accent -->
    <rect x="-1" y="-12" width="2" height="4" rx="1" fill="white" opacity="0.7"/>
    
    <!-- Connection lines -->
    <path d="M-7.5,0 L-1,0" stroke="white" stroke-width="1" opacity="0.6"/>
    <path d="M1,0 L7.5,0" stroke="white" stroke-width="1" opacity="0.6"/>
  </g>
  
  <!-- Shine overlay on top half -->
  <rect width="32" height="16" rx="7" ry="7" fill="url(#shineGradient)" />
  
  <!-- Subtle bottom shadow -->
  <rect x="2" y="28" width="28" height="2" rx="1" fill="rgba(0,0,0,0.1)" />
</svg>